<svg xmlns="http://www.w3.org/2000/svg" viewBox="0 0 180 180" role="img" aria-label="Srinivasa Mines apple touch icon">
  <defs>
    <linearGradient id="bg" x1="20" y1="10" x2="160" y2="170" gradientUnits="userSpaceOnUse">
      <stop offset="0" stop-color="#1f2937"/>
      <stop offset="0.55" stop-color="#111827"/>
      <stop offset="1" stop-color="#374151"/>
    </linearGradient>
    <linearGradient id="gold" x1="42" y1="38" x2="140" y2="142" gradientUnits="userSpaceOnUse">
      <stop offset="0" stop-color="#f3e7b3"/>
      <stop offset="0.45" stop-color="#d7b56d"/>
      <stop offset="1" stop-color="#9f7436"/>
    </linearGradient>
    <radialGradient id="glow" cx="60" cy="42" r="110" gradientUnits="userSpaceOnUse">
      <stop offset="0" stop-color="#ffffff" stop-opacity="0.18"/>
      <stop offset="1" stop-color="#ffffff" stop-opacity="0"/>
    </radialGradient>
  </defs>

  <rect width="180" height="180" rx="40" fill="url(#bg)"/>
  <rect width="180" height="180" rx="40" fill="url(#glow)"/>
  <rect x="10" y="10" width="160" height="160" rx="32" fill="none" stroke="url(#gold)" stroke-width="3.5"/>

  <path d="M46 118c10-25 26-47 44-66 6-7 15-10 24-10 10 0 17 3 22 9-9 0-16 3-22 10-19 19-33 41-43 66H46z" fill="#d7b56d" opacity="0.2"/>
  <path d="M51 116c10-22 26-44 44-62 5-6 11-8 18-8 7 0 13 2 18 6-6 2-11 5-15 10-18 18-31 36-41 54H51z" fill="none" stroke="url(#gold)" stroke-width="4.5" stroke-linecap="round" stroke-linejoin="round"/>
  <path d="M77 116l16-26 16 26" fill="none" stroke="url(#gold)" stroke-width="4.5" stroke-linecap="round" stroke-linejoin="round"/>
  <path d="M60 132h60" stroke="#9f7436" stroke-width="4" stroke-linecap="round" opacity="0.9"/>

  <text x="90" y="88" text-anchor="middle" font-size="42" font-family="Baskerville, 'Times New Roman', serif" font-weight="700" fill="#f8f1de" letter-spacing="4">SM</text>
  <text x="90" y="146" text-anchor="middle" font-size="12" font-family="'Trebuchet MS', Verdana, sans-serif" fill="#e5d4a1" letter-spacing="3">MINES</text>
</svg>
